<svg xmlns="http://www.w3.org/2000/svg" xmlns:xlink="http://www.w3.org/1999/xlink" width="550.706" height="345.421" viewBox="0 0 550.706 345.421">
  <defs>
    <filter id="Path_16417" x="145.586" y="0" width="184.477" height="254.986" filterUnits="userSpaceOnUse">
      <feOffset dy="3" input="SourceAlpha"/>
      <feGaussianBlur stdDeviation="3" result="blur"/>
      <feFlood flood-opacity="0.161"/>
      <feComposite operator="in" in2="blur"/>
      <feComposite in="SourceGraphic"/>
    </filter>
    <filter id="Path_16363" x="203.076" y="136.255" width="207.721" height="118.763" filterUnits="userSpaceOnUse">
      <feOffset dy="3" input="SourceAlpha"/>
      <feGaussianBlur stdDeviation="3" result="blur-2"/>
      <feFlood flood-opacity="0.161"/>
      <feComposite operator="in" in2="blur-2"/>
      <feComposite in="SourceGraphic"/>
    </filter>
    <filter id="Path_16376" x="389.915" y="79.476" width="139.301" height="198.697" filterUnits="userSpaceOnUse">
      <feOffset dy="3" input="SourceAlpha"/>
      <feGaussianBlur stdDeviation="3" result="blur-3"/>
      <feFlood flood-opacity="0.161"/>
      <feComposite operator="in" in2="blur-3"/>
      <feComposite in="SourceGraphic"/>
    </filter>
    <filter id="Path_16380" x="432.007" y="147.385" width="106.137" height="81.572" filterUnits="userSpaceOnUse">
      <feOffset dy="3" input="SourceAlpha"/>
      <feGaussianBlur stdDeviation="3" result="blur-4"/>
      <feFlood flood-opacity="0.161"/>
      <feComposite operator="in" in2="blur-4"/>
      <feComposite in="SourceGraphic"/>
    </filter>
  </defs>
  <g id="Group_8061" data-name="Group 8061" transform="translate(-49.414 -552.272)">
    <g id="Group_8049" data-name="Group 8049" transform="translate(49.414 749.912)">
      <path id="Path_16349" data-name="Path 16349" d="M97.39,695.6l112.915,65.1a6.2,6.2,0,0,1,2.267,8.446l-38.814,67.326a6.2,6.2,0,0,1-8.446,2.269L52.4,773.643A6.2,6.2,0,0,1,50.13,765.2L88.945,697.87A6.2,6.2,0,0,1,97.39,695.6Z" transform="translate(-49.309 -694.78)" fill="#ffcc80" fill-rule="evenodd"/>
      <path id="Path_16419" data-name="Path 16419" d="M4.634,0h9.457a4.634,4.634,0,0,1,4.634,4.634V19.372a4.634,4.634,0,0,1-4.634,4.634H4.634A4.634,4.634,0,0,1,0,19.372V4.634A4.634,4.634,0,0,1,4.634,0Z" transform="matrix(0.499, -0.866, 0.866, 0.499, 31.56, 44.08)" fill="#f07322"/>
      <g id="Group_8048" data-name="Group 8048" transform="translate(17.205 54.422)">
        <path id="Path_16350" data-name="Path 16350" d="M153.211,780.759l12.53,7.223a3.911,3.911,0,0,1,1.431,5.325h0a3.911,3.911,0,0,1-5.325,1.431l-12.53-7.223a3.91,3.91,0,0,1-1.431-5.325h0a3.909,3.909,0,0,1,5.325-1.431Zm-81-46.7,12.53,7.223a3.91,3.91,0,0,1,1.431,5.325h0a3.911,3.911,0,0,1-5.325,1.43l-12.53-7.223a3.911,3.911,0,0,1-1.431-5.325h0a3.911,3.911,0,0,1,5.325-1.431Zm27,15.565,12.53,7.224a3.909,3.909,0,0,1,1.431,5.325h0a3.91,3.91,0,0,1-5.325,1.429l-12.53-7.223a3.912,3.912,0,0,1-1.431-5.325h0a3.911,3.911,0,0,1,5.325-1.431Zm27,15.566,12.53,7.223a3.912,3.912,0,0,1,1.431,5.325h0a3.911,3.911,0,0,1-5.325,1.431l-12.53-7.224a3.909,3.909,0,0,1-1.431-5.325h0A3.91,3.91,0,0,1,126.213,765.194Z" transform="translate(-59.622 -733.545)" fill="#8f8f8f" fill-rule="evenodd"/>
        <path id="Path_16351" data-name="Path 16351" d="M67.407,742.4l35.71,20.586a3.911,3.911,0,0,1,1.431,5.325h0a3.909,3.909,0,0,1-5.325,1.431L63.513,749.16a3.911,3.911,0,0,1-1.431-5.325h0a3.909,3.909,0,0,1,5.325-1.431Zm48.622,28.03,13.573,7.825a3.912,3.912,0,0,1,1.431,5.325h0a3.911,3.911,0,0,1-5.326,1.431l-13.571-7.825a3.909,3.909,0,0,1-1.431-5.325h0A3.911,3.911,0,0,1,116.029,770.434Z" transform="translate(-61.564 -730.176)" fill="#8f8f8f" fill-rule="evenodd"/>
      </g>
    </g>
    <g id="Group_8050" data-name="Group 8050" transform="translate(91.02 806.221)">
      <path id="Rectangle_6893" data-name="Rectangle 6893" d="M4.4,0H138.3a4.4,4.4,0,0,1,4.4,4.4V85.676a4.4,4.4,0,0,1-4.4,4.4H4.4a4.4,4.4,0,0,1-4.4-4.4V4.4A4.4,4.4,0,0,1,4.4,0Z" transform="translate(0)" fill="#699dee"/>
      <path id="Rectangle_6894" data-name="Rectangle 6894" d="M4.019,0H19.988a4.018,4.018,0,0,1,4.018,4.018V14.707a4.018,4.018,0,0,1-4.018,4.018H4.018A4.018,4.018,0,0,1,0,14.707V4.019A4.019,4.019,0,0,1,4.019,0Z" transform="translate(13.47 27.032)" fill="#ffcd9b"/>
      <path id="Path_16354" data-name="Path 16354" d="M185.938,775.88l14.463-.01a3.91,3.91,0,0,1,3.9,3.9h0a3.912,3.912,0,0,1-3.9,3.9l-14.463.009a3.91,3.91,0,0,1-3.9-3.9h0a3.909,3.909,0,0,1,3.9-3.9ZM92.456,789.454l51.022-.027a3.912,3.912,0,0,1,3.9,3.9h0a3.911,3.911,0,0,1-3.9,3.9l-51.022.025a3.91,3.91,0,0,1-3.9-3.9h0a3.911,3.911,0,0,1,3.9-3.9Zm65.925-.035,15.667-.01a3.911,3.911,0,0,1,3.9,3.9h0a3.91,3.91,0,0,1-3.9,3.9l-15.666.01a3.91,3.91,0,0,1-3.9-3.9h0a3.91,3.91,0,0,1,3.9-3.9ZM92.447,775.937l14.463-.008a3.909,3.909,0,0,1,3.9,3.9h0a3.911,3.911,0,0,1-3.9,3.9l-14.463.008a3.91,3.91,0,0,1-3.9-3.9h0a3.912,3.912,0,0,1,3.9-3.9Zm31.163-.02,14.463-.008a3.911,3.911,0,0,1,3.9,3.9h0a3.91,3.91,0,0,1-3.9,3.9l-14.463.008a3.908,3.908,0,0,1-3.9-3.9h0a3.911,3.911,0,0,1,3.9-3.9Zm31.165-.018,14.463-.01a3.912,3.912,0,0,1,3.9,3.9h0a3.912,3.912,0,0,1-3.9,3.9l-14.463.01a3.911,3.911,0,0,1-3.9-3.9h0A3.909,3.909,0,0,1,154.775,775.9Z" transform="translate(-75.066 -718.338)" fill="#fff" fill-rule="evenodd" opacity="0.25" style="mix-blend-mode: overlay;isolation: isolate"/>
    </g>
    <path id="Path_16355" data-name="Path 16355" d="M310.244,762.111H219.965v40.252c14.1-.71,29.3-1.1,45.139-1.1s31.035.39,45.14,1.1Z" transform="translate(69.03 82.326)" fill="#2b478b" fill-rule="evenodd"/>
    <path id="Path_16357" data-name="Path 16357" d="M444.158,594.153H158.928a29.285,29.285,0,0,0-29.181,29.219V801.046a29.287,29.287,0,0,0,29.181,29.22h285.23a29.283,29.283,0,0,0,29.178-29.22V623.372A29.283,29.283,0,0,0,444.158,594.153Z" transform="translate(32.593 14.492)" fill="#2b478b" fill-rule="evenodd"/>
    <path id="Path_16358" data-name="Path 16358" d="M432.054,603.318H162.709a22.743,22.743,0,0,0-22.66,22.691v161.37a22.744,22.744,0,0,0,22.66,22.694H432.054a22.741,22.741,0,0,0,22.657-22.694V626.009A22.742,22.742,0,0,0,432.054,603.318Z" transform="translate(36.753 18.193)" fill="#fcfcfc" fill-rule="evenodd"/>
    <path id="Path_16359" data-name="Path 16359" d="M287.085,786.611c-51.233,0-95.74,4.061-118.218,10.021-5.079,1.348-4.071,8.84,1.183,8.84H404.12c5.255,0,6.261-7.492,1.183-8.84C382.823,790.672,338.319,786.611,287.085,786.611Z" transform="translate(47.049 92.221)" fill="#163560" fill-rule="evenodd"/>
    <g id="Group_8051" data-name="Group 8051" transform="translate(204 558.272)">
      <g transform="matrix(1, 0, 0, 1, -154.59, -6)" filter="url(#Path_16417)">
        <path id="Path_16417-2" data-name="Path 16417" d="M5.675,0H160.8a5.675,5.675,0,0,1,5.675,5.675V231.311a5.675,5.675,0,0,1-5.675,5.675H5.675A5.675,5.675,0,0,1,0,231.311V5.675A5.675,5.675,0,0,1,5.675,0Z" transform="translate(154.59 6)" fill="#fff"/>
      </g>
      <path id="Path_16360" data-name="Path 16360" d="M177.912,726.311H294.119v5.224H177.912v-5.224ZM193.4,580.956v9.671H195.9a1.959,1.959,0,0,1,1.3.341,1.243,1.243,0,0,1,0,1.784,1.95,1.95,0,0,1-1.3.343h-7.452a1.927,1.927,0,0,1-1.3-.345,1.167,1.167,0,0,1-.379-.9,1.127,1.127,0,0,1,.379-.887,1.97,1.97,0,0,1,1.3-.334h2.492v-9.671h-2.492a1.952,1.952,0,0,1-1.3-.341,1.241,1.241,0,0,1,0-1.786,1.951,1.951,0,0,1,1.3-.341H195.9a1.986,1.986,0,0,1,1.3.334,1.129,1.129,0,0,1,.378.887,1.17,1.17,0,0,1-.378.9,1.933,1.933,0,0,1-1.3.346Zm9.972,2.2v7.476h.889a1.952,1.952,0,0,1,1.3.341,1.239,1.239,0,0,1,0,1.784,1.943,1.943,0,0,1-1.3.343H200.91a1.931,1.931,0,0,1-1.3-.345,1.167,1.167,0,0,1-.379-.9,1.127,1.127,0,0,1,.379-.887,1.975,1.975,0,0,1,1.3-.334v-9.671h-.4a1.952,1.952,0,0,1-1.3-.341,1.241,1.241,0,0,1,0-1.786,1.951,1.951,0,0,1,1.3-.341h2.843l6.361,9.907v-7.439h-.889a1.959,1.959,0,0,1-1.3-.341,1.244,1.244,0,0,1,0-1.786,1.958,1.958,0,0,1,1.3-.341h3.355a1.981,1.981,0,0,1,1.3.334,1.124,1.124,0,0,1,.378.887,1.166,1.166,0,0,1-.378.9,1.928,1.928,0,0,1-1.3.346V593.1h-2.422l-6.386-9.944Zm18.4,6.341,3.581-8.537h-.567a1.984,1.984,0,0,1-1.315-.341,1.241,1.241,0,0,1,0-1.786,1.983,1.983,0,0,1,1.315-.341h3.244a1.978,1.978,0,0,1,1.3.334,1.124,1.124,0,0,1,.378.887,1.354,1.354,0,0,1-.514,1.016,1.9,1.9,0,0,1-1.16.23L222.938,593.1H220.6l-5.062-12.139a1.9,1.9,0,0,1-1.16-.23,1.321,1.321,0,0,1-.514-1,1.145,1.145,0,0,1,.379-.893,1.946,1.946,0,0,1,1.294-.341h3.246a2.019,2.019,0,0,1,1.315.334,1.124,1.124,0,0,1,.378.887,1.166,1.166,0,0,1-.378.9,1.966,1.966,0,0,1-1.315.346h-.569l3.557,8.537Zm21.753-3.7a7.633,7.633,0,0,0-2.093-5.491,6.423,6.423,0,0,0-9.309-.366,8.182,8.182,0,0,0,0,11.7,6.423,6.423,0,0,0,9.309-.366,7.616,7.616,0,0,0,2.093-5.481Zm-2.467,0a5.278,5.278,0,0,1-1.365,3.729,4,4,0,0,1-6.2,0,5.771,5.771,0,0,1,0-7.453,3.988,3.988,0,0,1,6.2-.007,5.3,5.3,0,0,1,1.365,3.734Zm10.589-4.841v9.671h2.492a1.952,1.952,0,0,1,1.3.341,1.239,1.239,0,0,1,0,1.784,1.943,1.943,0,0,1-1.3.343H246.69a1.931,1.931,0,0,1-1.3-.345,1.171,1.171,0,0,1-.378-.9,1.13,1.13,0,0,1,.378-.887,1.975,1.975,0,0,1,1.3-.334h2.492v-9.671H246.69a1.956,1.956,0,0,1-1.3-.341,1.244,1.244,0,0,1,0-1.786,1.956,1.956,0,0,1,1.3-.341h7.452a1.979,1.979,0,0,1,1.3.334,1.125,1.125,0,0,1,.379.887,1.167,1.167,0,0,1-.379.9,1.926,1.926,0,0,1-1.3.346Zm16.189-1.826a1.661,1.661,0,0,1,.5-.48,1.116,1.116,0,0,1,.584-.161,1.142,1.142,0,0,1,.889.375,1.839,1.839,0,0,1,.345,1.262v2.093a1.9,1.9,0,0,1-.341,1.27,1.253,1.253,0,0,1-1.682.1,1.912,1.912,0,0,1-.445-1.036,1.523,1.523,0,0,0-.337-.782,3.463,3.463,0,0,0-1.377-.864,5.089,5.089,0,0,0-1.776-.326,4.354,4.354,0,0,0-2.033.482,4.459,4.459,0,0,0-1.636,1.571,4.615,4.615,0,0,0-.712,2.583v1.6a3.9,3.9,0,0,0,1.294,2.982,5.116,5.116,0,0,0,3.6,1.192,6.353,6.353,0,0,0,2.328-.375,3.522,3.522,0,0,0,1.179-.859,2.9,2.9,0,0,1,.6-.5,1.008,1.008,0,0,1,.494-.115,1.176,1.176,0,0,1,.866.375,1.2,1.2,0,0,1,.375.879,1.71,1.71,0,0,1-.505,1.085,5.039,5.039,0,0,1-1.892,1.329,8.827,8.827,0,0,1-3.434.648,8.48,8.48,0,0,1-3.948-.9,6.571,6.571,0,0,1-3.421-5.691V585.2a7.489,7.489,0,0,1,.9-3.6,6.3,6.3,0,0,1,2.483-2.575,6.672,6.672,0,0,1,3.368-.9,7.552,7.552,0,0,1,2,.251,6.152,6.152,0,0,1,1.739.76ZM276.5,587v3.626H282.8V589.3a1.926,1.926,0,0,1,.345-1.3,1.167,1.167,0,0,1,.9-.379,1.127,1.127,0,0,1,.887.379,1.978,1.978,0,0,1,.334,1.3v3.8H273.642a1.931,1.931,0,0,1-1.3-.345,1.172,1.172,0,0,1-.379-.9,1.131,1.131,0,0,1,.379-.887,1.975,1.975,0,0,1,1.3-.334h.395v-9.671h-.395a1.956,1.956,0,0,1-1.3-.341,1.241,1.241,0,0,1,0-1.786,1.956,1.956,0,0,1,1.3-.341l11.1.013v3.739a1.987,1.987,0,0,1-.333,1.3,1.13,1.13,0,0,1-.887.378,1.171,1.171,0,0,1-.9-.378,1.934,1.934,0,0,1-.345-1.3v-1.283H276.5v3.577h2.172a1.894,1.894,0,0,1,.226-1.159,1.358,1.358,0,0,1,1.021-.518,1.127,1.127,0,0,1,.887.379,1.971,1.971,0,0,1,.333,1.3V587a1.962,1.962,0,0,1-.222,1.168,1.3,1.3,0,0,1-1,.51,1.357,1.357,0,0,1-1.021-.518,1.89,1.89,0,0,1-.226-1.16Zm-98.591,14.192H294.119v5.223H177.912v-5.223Zm4.25,96.288A1.478,1.478,0,1,0,180.684,696a1.478,1.478,0,0,0,1.477,1.478Zm5.387,0A1.478,1.478,0,1,0,186.071,696a1.477,1.477,0,0,0,1.477,1.478Zm5.385,0A1.478,1.478,0,1,0,191.456,696a1.477,1.477,0,0,0,1.477,1.478Zm5.384,0A1.478,1.478,0,1,0,196.841,696a1.478,1.478,0,0,0,1.475,1.478Zm5.385,0A1.478,1.478,0,1,0,202.227,696a1.478,1.478,0,0,0,1.475,1.478Zm5.387,0A1.478,1.478,0,1,0,207.612,696a1.478,1.478,0,0,0,1.477,1.478Zm5.385,0A1.478,1.478,0,1,0,213,696a1.477,1.477,0,0,0,1.477,1.478Zm5.385,0A1.478,1.478,0,1,0,218.383,696a1.478,1.478,0,0,0,1.477,1.478Zm5.385,0A1.478,1.478,0,1,0,223.768,696a1.477,1.477,0,0,0,1.477,1.478Zm5.385,0A1.478,1.478,0,1,0,229.153,696a1.478,1.478,0,0,0,1.477,1.478Zm5.385,0A1.478,1.478,0,1,0,234.538,696a1.479,1.479,0,0,0,1.477,1.478Zm5.385,0A1.478,1.478,0,1,0,239.924,696a1.478,1.478,0,0,0,1.477,1.478Zm5.385,0A1.478,1.478,0,1,0,245.309,696a1.478,1.478,0,0,0,1.477,1.478Zm5.385,0A1.478,1.478,0,1,0,250.7,696a1.478,1.478,0,0,0,1.475,1.478Zm5.385,0A1.478,1.478,0,1,0,256.079,696a1.478,1.478,0,0,0,1.477,1.478Zm5.385,0A1.478,1.478,0,1,0,261.465,696a1.478,1.478,0,0,0,1.477,1.478Zm5.385,0A1.478,1.478,0,1,0,266.85,696a1.478,1.478,0,0,0,1.477,1.478Zm5.385,0A1.478,1.478,0,1,0,272.235,696a1.478,1.478,0,0,0,1.477,1.478Zm5.385,0A1.478,1.478,0,1,0,277.622,696a1.478,1.478,0,0,0,1.475,1.478Zm5.387,0A1.478,1.478,0,1,0,283.006,696a1.478,1.478,0,0,0,1.478,1.478Zm5.384,0A1.478,1.478,0,1,0,288.391,696a1.478,1.478,0,0,0,1.477,1.478Zm5.387,0A1.478,1.478,0,1,0,293.778,696a1.478,1.478,0,0,0,1.477,1.478Zm-118.479,0A1.478,1.478,0,1,0,175.3,696,1.479,1.479,0,0,0,176.776,697.481Z" transform="translate(-153.01 -550.256)" fill="#4f4f4f" fill-rule="evenodd"/>
      <path id="Path_16361" data-name="Path 16361" d="M192.541,741.4h79.812a2.611,2.611,0,0,1,0,5.222H192.541a2.611,2.611,0,1,1,0-5.222Zm11.095-45.7h32.4a2.612,2.612,0,1,1,0,5.224h-32.4a2.612,2.612,0,0,1,0-5.224Zm57.7,0h16.81a2.612,2.612,0,1,1,0,5.224h-16.81a2.612,2.612,0,0,1,0-5.224Zm0-87.589h16.81a2.611,2.611,0,1,1,0,5.221h-16.81a2.611,2.611,0,1,1,0-5.221Zm-74.589,14.035h49.29a2.612,2.612,0,1,1,0,5.224h-49.29a2.612,2.612,0,0,1,0-5.224Zm74.589,0h16.81a2.612,2.612,0,1,1,0,5.224h-16.81a2.612,2.612,0,0,1,0-5.224Zm-74.589,14.527h49.29a2.611,2.611,0,1,1,0,5.222h-49.29a2.611,2.611,0,1,1,0-5.222Zm74.589,0h16.81a2.611,2.611,0,1,1,0,5.222h-16.81a2.611,2.611,0,0,1,0-5.222Zm-74.589,15.669h49.29a2.611,2.611,0,1,1,0,5.222h-49.29a2.611,2.611,0,1,1,0-5.222Zm74.589,0h16.81a2.611,2.611,0,1,1,0,5.222h-16.81a2.611,2.611,0,0,1,0-5.222Zm-74.589,14.689h49.29a2.612,2.612,0,1,1,0,5.224h-49.29a2.612,2.612,0,0,1,0-5.224Zm74.589,0h16.81a2.612,2.612,0,1,1,0,5.224h-16.81a2.612,2.612,0,0,1,0-5.224ZM186.746,608.11h49.29a2.611,2.611,0,1,1,0,5.221h-49.29a2.611,2.611,0,1,1,0-5.221Zm15.262,122.184h60.878a2.611,2.611,0,0,1,0,5.222H202.008a2.611,2.611,0,1,1,0-5.222Z" transform="translate(-149.441 -538.143)" fill="#bababa" fill-rule="evenodd"/>
    </g>
    <g id="Group_8052" data-name="Group 8052" transform="translate(261.49 661.366)">
      <g transform="matrix(1, 0, 0, 1, -212.08, -109.09)" filter="url(#Path_16363)">
        <path id="Path_16363-2" data-name="Path 16363" d="M390.094,655.328v82.628a18.181,18.181,0,0,1-18.117,18.135H218.507a18.184,18.184,0,0,1-18.134-18.135V655.328Z" transform="translate(11.7 -513.07)" fill="#fff" fill-rule="evenodd"/>
      </g>
      <path id="Path_16364" data-name="Path 16364" d="M218.507,631.707h153.47a18.181,18.181,0,0,1,18.117,18.134v15.027H200.373V649.841A18.184,18.184,0,0,1,218.507,631.707Z" transform="translate(-200.373 -631.707)" fill="#2b478b" fill-rule="evenodd"/>
      <path id="Path_16365" data-name="Path 16365" d="M306.836,640.335a6.485,6.485,0,1,0,6.483,6.483A6.48,6.48,0,0,0,306.836,640.335Z" transform="translate(-159.995 -628.222)" fill="#fff" fill-rule="evenodd"/>
      <path id="Path_16366" data-name="Path 16366" d="M292.873,640.335a6.485,6.485,0,1,0,6.5,6.483A6.488,6.488,0,0,0,292.873,640.335Z" transform="translate(-165.633 -628.222)" fill="#fff" fill-rule="evenodd"/>
      <path id="Path_16367" data-name="Path 16367" d="M320.786,640.335a6.485,6.485,0,1,0,6.483,6.483A6.479,6.479,0,0,0,320.786,640.335Z" transform="translate(-154.361 -628.222)" fill="#fff" fill-rule="evenodd"/>
      <path id="Path_16368" data-name="Path 16368" d="M272.786,669.506h59.4a11.873,11.873,0,0,1,11.842,11.843h0a11.873,11.873,0,0,1-11.842,11.842h-59.4a11.873,11.873,0,0,1-11.842-11.842h0a11.873,11.873,0,0,1,11.842-11.843Zm59.4,2.569h-59.4a9.3,9.3,0,0,0-9.273,9.274h0a9.3,9.3,0,0,0,9.273,9.273h59.4a9.3,9.3,0,0,0,9.273-9.273h0a9.3,9.3,0,0,0-9.273-9.274Z" transform="translate(-175.91 -616.441)" fill="#326496" fill-rule="evenodd"/>
      <path id="Path_16369" data-name="Path 16369" d="M278.212,683.646c-.131.23-.248.358-.352.385s-.275-.035-.514-.188l-1.539-1.112c-.229-.163-.348-.3-.359-.408s.076-.267.261-.474l1.783-1.881-2.486-.408c-.272-.044-.438-.112-.5-.2s-.046-.275.041-.548l.59-1.815c.076-.274.168-.431.278-.474a.715.715,0,0,1,.522.114l2.323,1.047-.376-2.437c-.044-.272-.025-.452.058-.539a.745.745,0,0,1,.531-.132h1.915c.272,0,.444.044.515.132a.745.745,0,0,1,.041.539l-.327,2.437,2.241-1.047a.7.7,0,0,1,.515-.114c.1.043.2.2.286.474l.605,1.815c.087.272.1.455.041.548s-.226.161-.5.2l-2.5.408,1.8,1.881c.185.208.272.365.261.474s-.131.246-.359.408l-1.539,1.112c-.239.153-.409.216-.507.188s-.212-.154-.343-.385l-1.212-2.305-1.193,2.305Zm11.743,0c-.131.23-.247.358-.351.385s-.275-.035-.515-.188l-1.537-1.112c-.23-.163-.35-.3-.361-.408s.077-.267.262-.474l1.783-1.881-2.486-.408c-.272-.044-.439-.112-.5-.2s-.046-.275.041-.548l.59-1.815c.076-.274.169-.431.278-.474a.717.717,0,0,1,.524.114l2.322,1.047-.376-2.437c-.043-.272-.024-.452.058-.539a.747.747,0,0,1,.532-.132h1.913c.272,0,.445.044.515.132a.746.746,0,0,1,.041.539l-.327,2.437,2.241-1.047a.7.7,0,0,1,.515-.114c.1.043.2.2.286.474l.605,1.815c.087.272.1.455.041.548s-.226.161-.5.2l-2.5.408,1.8,1.881c.185.208.272.365.261.474s-.131.246-.359.408l-1.537,1.112c-.24.153-.409.216-.507.188s-.213-.154-.344-.385l-1.21-2.305-1.195,2.305Zm11.745,0c-.131.23-.249.358-.352.385s-.275-.035-.515-.188l-1.537-1.112c-.229-.163-.35-.3-.359-.408s.076-.267.261-.474l1.783-1.881-2.486-.408c-.272-.044-.439-.112-.5-.2s-.046-.275.041-.548l.588-1.815c.077-.274.17-.431.278-.474a.717.717,0,0,1,.524.114l2.323,1.047-.376-2.437c-.043-.272-.025-.452.056-.539a.751.751,0,0,1,.532-.132h1.914c.272,0,.445.044.515.132a.731.731,0,0,1,.041.539l-.327,2.437,2.24-1.047a.7.7,0,0,1,.517-.114c.1.043.2.2.286.474l.6,1.815c.088.272.1.455.042.548s-.226.161-.5.2l-2.5.408,1.8,1.881c.185.208.272.365.263.474s-.131.246-.361.408l-1.537,1.112c-.24.153-.408.216-.507.188s-.212-.154-.344-.385l-1.21-2.305-1.193,2.305Zm11.743,0c-.131.23-.249.358-.351.385s-.277-.035-.515-.188l-1.539-1.112c-.229-.163-.348-.3-.359-.408s.076-.267.262-.474l1.782-1.881-2.486-.408c-.272-.044-.438-.112-.5-.2s-.046-.275.041-.548l.59-1.815c.076-.274.168-.431.278-.474a.715.715,0,0,1,.522.114l2.323,1.047-.376-2.437c-.044-.272-.024-.452.058-.539a.744.744,0,0,1,.531-.132h1.915c.272,0,.444.044.515.132a.746.746,0,0,1,.041.539l-.327,2.437,2.241-1.047a.7.7,0,0,1,.515-.114c.1.043.2.2.286.474l.605,1.815c.087.272.1.455.041.548s-.226.161-.5.2l-2.5.408,1.8,1.881c.185.208.272.365.261.474s-.131.246-.359.408l-1.539,1.112c-.239.153-.408.216-.507.188s-.212-.154-.343-.385l-1.212-2.305Z" transform="translate(-170.447 -614.396)" fill="#4e4e4e" fill-rule="evenodd"/>
      <path id="Path_16371" data-name="Path 16371" d="M250.834,691.978l-15.58,15.579L224.7,697.006l4.1-4.1,6.449,6.449,11.478-11.477,4.1,4.1Zm-13.3,21.851a17.561,17.561,0,1,0-17.561-17.561A17.562,17.562,0,0,0,237.529,713.829Z" transform="translate(-192.459 -612.725)" fill="#64dc3c" fill-rule="evenodd"/>
      <path id="Path_16372" data-name="Path 16372" d="M272.786,691.32h59.4a11.873,11.873,0,0,1,11.842,11.842h0A11.873,11.873,0,0,1,332.185,715h-59.4a11.873,11.873,0,0,1-11.842-11.843h0a11.873,11.873,0,0,1,11.842-11.842Z" transform="translate(-175.91 -607.631)" fill="#f07322" fill-rule="evenodd"/>
      <path id="Path_16373" data-name="Path 16373" d="M284.151,696.009a6.213,6.213,0,0,1,2.54.48,3.789,3.789,0,0,1,0,6.973,6.213,6.213,0,0,1-2.54.48h-1.518v2.586h-3.546V696.009Zm-.225,5.2a1.571,1.571,0,0,0,1.081-.323,1.325,1.325,0,0,0,0-1.818,1.579,1.579,0,0,0-1.081-.323h-1.293v2.464Zm12.817,3.487.706,1.834h3.667l-4.6-10.519h-3.486l-4.6,10.519h3.607l.706-1.834Zm-.977-2.555h-2.044l1.022-2.645,1.022,2.645Zm11.5.572v3.817h-3.548v-3.862l-3.966-6.657h3.741l2.149,3.636,2.163-3.636h3.425Z" transform="translate(-168.582 -605.737)" fill="#fff" fill-rule="evenodd"/>
    </g>
    <g id="Group_8054" data-name="Group 8054" transform="translate(448.329 637.748)">
      <g transform="matrix(1, 0, 0, 1, -398.91, -85.48)" filter="url(#Path_16376)">
        <path id="Path_16376-2" data-name="Path 16376" d="M388.376,615.374,444.182,630.4a14.34,14.34,0,0,1,10.09,17.523L417.369,785a14.341,14.341,0,0,1-17.525,10.09l-55.8-15.023a14.34,14.34,0,0,1-10.09-17.523l36.9-137.08A14.34,14.34,0,0,1,388.376,615.374Z" transform="translate(65.45 -529.41)" fill="#163560" fill-rule="evenodd"/>
      </g>
      <path id="Path_16418" data-name="Path 16418" d="M0,0H133.1V78.345H0Z" transform="translate(6.367 141.299) rotate(-74.933)" fill="#dceaff"/>
      <path id="Path_16377" data-name="Path 16377" d="M361.227,726.337l11.225,3.021a4.191,4.191,0,0,1-2.179,8.093l-11.225-3.022a4.19,4.19,0,1,1,2.179-8.092Z" transform="translate(-324.379 -569.929)" fill="#e4e4e4" fill-rule="evenodd"/>
      <path id="Path_16378" data-name="Path 16378" d="M386.457,624.031l15.271,4.11a2.1,2.1,0,1,1-1.089,4.046l-15.271-4.11a2.1,2.1,0,1,1,1.089-4.046Z" transform="translate(-313.123 -611.219)" fill="#e4e4e4" fill-rule="evenodd"/>
      <g id="Group_8053" data-name="Group 8053" transform="translate(42.092 46.427)">
        <g transform="matrix(1, 0, 0, 1, -441.01, -131.9)" filter="url(#Path_16380)">
          <path id="Path_16380-2" data-name="Path 16380" d="M363.444,704.513a10.078,10.078,0,0,0,10.043,10.053h10.686l11.1,11.1a4,4,0,0,0,5.642,0l11.1-11.1h29.516a10.081,10.081,0,0,0,10.053-10.053v-31.2a10.082,10.082,0,0,0-10.053-10.053h-68.04a10.079,10.079,0,0,0-10.043,10.053Z" transform="translate(77.56 -509.87)" fill="#fff" fill-rule="evenodd"/>
        </g>
        <path id="Path_16381" data-name="Path 16381" d="M388.169,676.474h41.755a7.444,7.444,0,0,1,7.422,7.422h0a7.444,7.444,0,0,1-7.422,7.421H388.169a7.444,7.444,0,0,1-7.422-7.421h0A7.444,7.444,0,0,1,388.169,676.474Z" transform="translate(-356.456 -636.437)" fill="#fff" fill-rule="evenodd"/>
        <path id="Path_16382" data-name="Path 16382" d="M377.88,690.093c-.18.316-.341.491-.483.529s-.379-.049-.709-.258l-2.116-1.53c-.314-.226-.48-.413-.494-.563s.1-.368.359-.653l2.453-2.587-3.42-.563q-.562-.091-.687-.282c-.083-.126-.063-.378.056-.753l.81-2.5q.158-.562.382-.653a.989.989,0,0,1,.72.159l3.2,1.439-.518-3.352q-.091-.562.079-.743a1.042,1.042,0,0,1,.731-.18h2.632c.376,0,.612.06.709.18a1.018,1.018,0,0,1,.056.743l-.449,3.352,3.083-1.439a.968.968,0,0,1,.709-.159c.142.06.274.278.393.653l.832,2.5c.121.375.139.626.058.753s-.312.222-.687.282l-3.444.563,2.475,2.587c.255.285.375.5.361.653s-.18.337-.5.563l-2.116,1.53c-.33.209-.561.3-.7.258s-.292-.214-.472-.529l-1.666-3.173-1.643,3.173Zm16.159,0c-.18.316-.343.491-.484.529s-.379-.049-.709-.258l-2.116-1.53c-.314-.226-.48-.413-.494-.563s.1-.368.359-.653l2.453-2.587-3.42-.563q-.562-.091-.687-.282c-.083-.126-.063-.378.056-.753l.81-2.5q.158-.562.382-.653a.994.994,0,0,1,.722.159l3.2,1.439-.518-3.352q-.091-.562.079-.743a1.042,1.042,0,0,1,.731-.18h2.634c.375,0,.611.06.709.18a1.027,1.027,0,0,1,.055.743l-.449,3.352,3.083-1.439a.968.968,0,0,1,.709-.159c.142.06.274.278.393.653l.832,2.5c.121.375.139.626.058.753s-.312.222-.686.282l-3.444.563,2.475,2.587c.256.285.375.5.361.653s-.18.337-.5.563l-2.116,1.53c-.33.209-.562.3-.7.258s-.292-.214-.472-.529l-1.665-3.173-1.642,3.173Zm16.157,0c-.181.316-.343.491-.484.529s-.379-.049-.709-.258l-2.116-1.53c-.315-.226-.48-.413-.494-.563s.105-.368.359-.653l2.453-2.587-3.42-.563q-.562-.091-.686-.282c-.083-.126-.063-.378.056-.753l.81-2.5q.158-.562.383-.653a.99.99,0,0,1,.72.159l3.2,1.439-.518-3.352q-.091-.562.079-.743a1.042,1.042,0,0,1,.731-.18h2.632c.376,0,.612.06.71.18a1.027,1.027,0,0,1,.055.743l-.449,3.352,3.083-1.439a.968.968,0,0,1,.709-.159c.143.06.274.278.395.653l.831,2.5c.121.375.139.626.058.753s-.312.222-.686.282l-3.444.563,2.475,2.587q.383.427.361.653c-.015.15-.18.337-.5.563l-2.114,1.53c-.331.209-.563.3-.7.258s-.293-.214-.473-.529l-1.665-3.173-1.642,3.173Zm16.157,0c-.18.316-.341.491-.484.529s-.379-.049-.709-.258l-2.116-1.53c-.315-.226-.48-.413-.494-.563s.105-.368.359-.653l2.453-2.587-3.42-.563q-.562-.091-.686-.282c-.083-.126-.063-.378.056-.753l.81-2.5q.158-.562.383-.653a.99.99,0,0,1,.72.159l3.2,1.439-.518-3.352c-.059-.375-.034-.622.079-.743a1.042,1.042,0,0,1,.731-.18h2.634q.562,0,.709.18a1.02,1.02,0,0,1,.055.743l-.449,3.352,3.083-1.439a.967.967,0,0,1,.709-.159c.143.06.274.278.395.653l.831,2.5c.121.375.139.626.058.753s-.312.222-.686.282l-3.444.563,2.475,2.587q.383.427.361.653c-.016.15-.18.337-.5.563l-2.114,1.53c-.331.209-.563.3-.7.258s-.293-.214-.473-.529L428,686.92Z" transform="translate(-359.692 -635.98)" fill="#4e4e4e" fill-rule="evenodd"/>
        <path id="Path_16383" data-name="Path 16383" d="M423.606,662.374l-.255-12.765a1.688,1.688,0,1,0-3.375.067l.255,12.765a1.688,1.688,0,1,0,3.375-.067Zm6.659,2.542a1.686,1.686,0,0,1-2.952-1.628l6.163-11.182a1.685,1.685,0,0,1,2.951,1.628l-6.162,11.182Zm4.5,5.531,10.928-6.6a1.686,1.686,0,0,0-1.746-2.885l-10.928,6.6a1.686,1.686,0,0,0,1.746,2.885Zm1.127,7.043a1.688,1.688,0,0,1-.066-3.375l12.765-.255a1.688,1.688,0,1,1,.067,3.375Z" transform="translate(-340.613 -647.955)" fill="#fff" fill-rule="evenodd"/>
      </g>
    </g>
  </g>
</svg>
